<svg width="130" height="48" viewBox="0 0 130 48" fill="none" xmlns="http://www.w3.org/2000/svg"><g clip-path="url(#clip0_3170_10697)"><path d="M41.508 37c-1.54 2.667-5.388 2.667-6.928 0L22.983 16.913c-1.54-2.667.385-6 3.464-6h23.194c3.08 0 5.004 3.333 3.465 6L41.508 37z" fill="#6667AB"/><path d="M25.856 31.783c-1.54 2.667-5.389 2.667-6.928 0L7.33 11.696c-1.54-2.666.384-6 3.464-6h23.194c3.08 0 5.004 3.334 3.464 6L25.856 31.783z" fill="#96D8DE"/><mask id="a" style="mask-type:alpha" maskUnits="userSpaceOnUse" x="22" y="10" width="32" height="30"><path d="M41.508 37.002c-1.54 2.667-5.388 2.667-6.928 0L22.983 16.915c-1.54-2.667.385-6 3.464-6h23.194c3.08 0 5.004 3.333 3.465 6L41.508 37.002z" fill="#6667AB"/></mask><g mask="url(#a)"><path fill-rule="evenodd" clip-rule="evenodd" d="M28.713 26.837L19.52 10.914h18.386l-9.193 15.923z" fill="#8E8FEB"/></g><rect width="10.435" height="10.435" rx="5.217" transform="matrix(-1 0 0 1 14.043 32.566)" fill="#96D8DE"/><path d="M58.169 33.95a2.041 2.041 0 0 1-1.44-.564c-.39-.39-.584-.884-.584-1.482s.194-1.078.584-1.44a2.041 2.041 0 0 1 1.44-.563c.57 0 1.05.188 1.44.563.39.362.584.842.584 1.44s-.195 1.092-.584 1.482c-.39.376-.87.563-1.44.563zM65.34 33.782l-4.779-14.608h3.506l4.153 12.939h-1.753l4.341-12.94h3.13l4.174 12.94h-1.69l4.258-12.94h3.234l-4.779 14.61h-3.631L71.81 22.428h.96l-3.798 11.354H65.34zM88.911 25.059h7.033v2.63h-7.033v-2.63zm.25 6.01h7.952v2.713H85.802V19.174h11.04v2.713h-7.68v9.183zM99.803 33.782V19.174h7.137c1.837 0 3.214.348 4.133 1.043.932.696 1.398 1.614 1.398 2.755 0 .765-.188 1.433-.564 2.004-.375.556-.89.987-1.544 1.294-.654.306-1.405.459-2.254.459l.397-.856c.918 0 1.732.153 2.441.46.71.291 1.259.73 1.649 1.314.404.584.605 1.3.605 2.15 0 1.252-.494 2.232-1.481 2.942-.988.696-2.442 1.044-4.362 1.044h-7.555zm3.36-2.546h3.944c.877 0 1.538-.139 1.983-.417.459-.292.689-.751.689-1.377 0-.613-.23-1.065-.689-1.357-.445-.306-1.106-.459-1.983-.459h-4.194v-2.463h3.61c.821 0 1.447-.139 1.878-.417.445-.292.668-.73.668-1.315 0-.57-.223-.995-.668-1.273-.431-.292-1.057-.438-1.878-.438h-3.36v9.516zM119.58 34.033a11.81 11.81 0 0 1-3.026-.397c-1.002-.278-1.851-.667-2.546-1.168l1.315-2.588a6.828 6.828 0 0 0 1.94.96 7.278 7.278 0 0 0 2.234.355c.848 0 1.516-.167 2.003-.501.487-.334.73-.793.73-1.378 0-.556-.215-.994-.647-1.314-.431-.32-1.126-.48-2.086-.48h-1.545v-2.233l4.07-4.613.375 1.21h-7.659v-2.712h10.226v2.191l-4.048 4.612-1.712-.98h.981c1.795 0 3.152.403 4.07 1.21.918.807 1.377 1.843 1.377 3.11 0 .82-.215 1.593-.647 2.316-.431.71-1.092 1.287-1.982 1.732-.891.445-2.032.668-3.423.668z" fill="#fff"/></g><defs><clipPath id="clip0_3170_10697"><path fill="#fff" d="M0 0h130v48H0z"/></clipPath></defs></svg>