<svg width="160" height="60" viewBox="0 0 160 60" fill="none" xmlns="http://www.w3.org/2000/svg"><path d="M69.04 32.33c-.88 0-1.598-.29-2.158-.87-.56-.579-.839-1.298-.839-2.157s.28-1.578.84-2.157c.559-.58 1.278-.87 2.157-.87.859 0 1.568.29 2.127.87.56.579.84 1.298.84 2.157 0 .86-.28 1.578-.84 2.158-.56.579-1.268.869-2.127.869zM79.312 32L72.57 10.755h5.304l4.854 16.36h-2.307l4.794-16.36H89.5l4.794 16.36h-2.277l4.854-16.36h5.274L95.373 32h-4.315l-4.794-16.33h2.157L83.657 32h-4.345zm25.072 0V10.755h5.364V32h-5.364zm4.255 0v-4.525h11.507V32h-11.507zm0-8.63v-4.405h10.428v4.405h-10.428zm0-8.09v-4.525h11.327v4.525h-11.327zM127.426 32v-3.985h4.434c.839 0 1.499-.23 1.978-.69.5-.479.749-1.098.749-1.857 0-.5-.11-.94-.329-1.319-.22-.4-.54-.699-.959-.899-.4-.22-.879-.33-1.439-.33h-4.434v-3.865h4.105c.699 0 1.268-.17 1.708-.51.459-.359.689-.908.689-1.647 0-.74-.23-1.279-.689-1.618-.44-.36-1.009-.54-1.708-.54h-4.105v-3.985h5.393c1.319 0 2.457.25 3.416.75.979.498 1.728 1.168 2.248 2.007.519.839.779 1.788.779 2.846 0 1.419-.49 2.597-1.469 3.536-.958.92-2.357 1.489-4.195 1.708v-1.798c2.038.24 3.596.9 4.675 1.978 1.079 1.059 1.618 2.397 1.618 4.015 0 1.199-.3 2.268-.899 3.206-.599.92-1.448 1.649-2.547 2.188-1.079.54-2.357.809-3.835.809h-5.184zm-4.255 0V10.755h5.273V32h-5.273zm25.272.33c-1.499 0-2.877-.25-4.135-.75-1.259-.519-2.328-1.248-3.207-2.187l3.416-3.356c.36.52.889.949 1.588 1.289.72.32 1.469.479 2.248.479.659 0 1.238-.11 1.738-.33.519-.24.919-.569 1.198-.989.3-.439.45-.958.45-1.558 0-.599-.15-1.108-.45-1.528-.299-.44-.729-.769-1.288-.989-.54-.22-1.189-.33-1.948-.33-.399 0-.819.03-1.258.09-.42.04-.76.11-1.019.21l2.337-2.936a32.74 32.74 0 0 1 1.738-.39 6.713 6.713 0 0 1 1.438-.18c1.079 0 2.048.26 2.907.78.859.499 1.538 1.218 2.038 2.157.499.919.749 2.008.749 3.266 0 1.438-.35 2.707-1.049 3.806-.699 1.078-1.698 1.927-2.997 2.547-1.278.599-2.776.899-4.494.899zm-2.667-9.949v-2.936l4.944-5.784h5.813l-5.094 5.784-5.663 2.936zm-3.206-7.161v-4.465h13.963v2.906l-4.045 1.559h-9.918zM77.518 41.388v1.68h9.841v-1.68h-9.841zm3.793-1.865v2.658h1.897v-2.658h-1.897zm0 7.665v6.25h1.633v-6.25H81.31zm-2.58-.14v1.461c0 1.353-.203 3.063-1.99 4.338.42.28 1.041.855 1.305 1.228 2.1-1.57 2.364-3.762 2.364-5.504v-1.523h-1.68zm1.71-4.742c-.28.964-.84 2.254-1.322 3.11l1.493.512c.528-.761 1.181-1.959 1.788-3.063l-1.96-.56zm3.047 1.586c1.01 1.01 2.13 2.425 2.565 3.373l1.555-.855c-.497-.964-1.663-2.316-2.69-3.28l-1.43.762zm-5.862 1.026l.187 1.741c2.13-.093 5.1-.233 7.93-.404l.046-1.57c-2.97.093-6.126.186-8.163.233zm-3.87-3.95c.979.436 2.207 1.151 2.782 1.695l1.073-1.523c-.622-.529-1.881-1.166-2.845-1.54l-1.01 1.369zm-.903 4.23c.995.42 2.24 1.103 2.83 1.632l1.073-1.555c-.638-.513-1.928-1.135-2.892-1.477l-1.01 1.4zm.451 7.54l1.633 1.182a79.256 79.256 0 0 0 2.58-4.991l-1.43-1.166c-.87 1.819-1.99 3.794-2.783 4.975zm10.588-5.69v4.804c0 1.057.11 1.384.373 1.664.265.264.684.388 1.042.388h.824c.28 0 .638-.078.855-.217.249-.14.404-.373.513-.7.11-.327.171-1.135.202-1.835-.42-.14-.963-.42-1.259-.684-.015.7-.031 1.244-.062 1.493-.031.249-.062.357-.109.389-.047.062-.124.077-.202.077h-.249c-.062 0-.14-.03-.155-.078-.047-.062-.063-.202-.063-.45v-4.851h-1.71zm20.337-.42v5.053c0 1.803.435 2.394 2.192 2.394h1.866c1.554 0 2.021-.746 2.207-3.467-.482-.124-1.306-.45-1.694-.762-.078 2.13-.156 2.472-.669 2.472h-1.43c-.513 0-.591-.077-.591-.637v-5.053h-1.881zm-4.198.078c-.202 2.69-.529 4.695-4.23 5.799.405.389.934 1.15 1.136 1.633 4.198-1.4 4.835-4.027 5.084-7.432h-1.99zm-2.706-5.893c.685 1.228 1.384 2.845 1.602 3.871l1.819-.73c-.264-1.042-1.026-2.597-1.741-3.763l-1.68.622zm10.06-.746c-.389 1.244-1.151 2.876-1.788 3.902l1.632.622c.653-.964 1.462-2.456 2.146-3.84l-1.99-.684zm-11.179 5.162v1.757h14.055v-1.757H96.206zm6.001-5.706v6.42h1.897v-6.42h-1.897zm19.839 4.617v1.835h3.918V44.14h-3.918zm-1.119-4.446v13.075l1.928-.45V39.693h-1.928zm-1.975 12.173l.529 1.928c1.928-.435 4.478-.98 6.841-1.523l-.187-1.835c-2.549.56-5.332 1.12-7.183 1.43zm13.06-8.94c-1.181.794-2.954 1.758-4.586 2.38.233.404.528 1.057.637 1.492 1.711-.622 3.67-1.415 5.255-2.254l-1.306-1.617zm-5.146-3.233v11.35c0 2.207.498 2.845 2.317 2.845h2.145c1.679 0 2.161-1.01 2.364-3.67-.529-.124-1.306-.466-1.757-.808-.094 2.13-.187 2.674-.778 2.674h-1.694c-.591 0-.669-.124-.669-1.026V39.694h-1.928zm21.472 1.212v1.695h7.494v-1.695h-7.494zm-.933 3.017v1.725h9.111v-1.725h-9.111zm.342 3.125v1.725h8.613v-1.725h-8.613zm3.358-7.54v5.363h1.85v-5.364h-1.85zm1.85 5.954v6.545c0 .218-.078.265-.326.265-.265.015-1.12.015-1.882-.016.249.513.498 1.306.56 1.85 1.182 0 2.068-.046 2.69-.326.622-.28.808-.793.808-1.741v-6.577h-1.85zm-4.664 4.151c.668.746 1.461 1.773 1.788 2.457l1.477-.964c-.373-.684-1.197-1.664-1.881-2.348l-1.384.855zm-6.421-1.803l.451 1.788a274.72 274.72 0 0 0 5.737-1.742l-.249-1.632c-2.146.606-4.416 1.244-5.939 1.586zm2.798-8.287v14.599h1.711v-14.6h-1.711zm-2.052.808c-.14 1.835-.404 3.778-.902 5.038.373.186 1.042.606 1.322.84.559-1.4.933-3.561 1.135-5.614l-1.555-.264zm.42 2.13l-.342 1.773h4.975V42.46h-4.633z" fill="#F0EEE9"/><circle cx="29.202" cy="30.202" r="28.202" fill="#6667AB"/><path opacity=".5" fill-rule="evenodd" clip-rule="evenodd" d="M29.201 33.014l5.768-9.99h13.332L35.867 44.56l-6.666-11.546z" fill="#F0EEE9"/><path fill-rule="evenodd" clip-rule="evenodd" d="M23.433 23.023l5.768 9.99-6.666 11.547-12.433-21.537h13.331z" fill="#F0EEE9"/></svg>