<svg width="154" height="56" viewBox="0 0 154 56" fill="none" xmlns="http://www.w3.org/2000/svg"><path d="M66.533 43.714c-.848 0-1.542-.28-2.082-.838-.54-.56-.809-1.253-.809-2.082s.27-1.522.81-2.081c.54-.56 1.233-.839 2.081-.839.829 0 1.513.28 2.052.839.54.559.81 1.252.81 2.081s-.27 1.523-.81 2.082c-.54.559-1.223.838-2.052.838zm9.91-.318L69.94 22.899h5.117l4.683 15.785h-2.226l4.625-15.785h4.134l4.626 15.785h-2.197l4.683-15.785h5.088L91.94 43.396h-4.163L83.15 27.64h2.082l-4.597 15.756h-4.192zm24.189 0V22.899h5.175v20.497h-5.175zm4.105 0v-4.365h11.102v4.365h-11.102zm0-8.326v-4.25h10.061v4.25h-10.061zm0-7.805v-4.366h10.928v4.366h-10.928zm18.125 16.131v-3.845h4.279c.809 0 1.445-.222 1.908-.665.482-.462.722-1.06.722-1.792 0-.482-.106-.906-.318-1.272a2.017 2.017 0 0 0-.925-.867c-.385-.212-.848-.319-1.387-.319h-4.279v-3.729h3.961c.674 0 1.223-.164 1.647-.491.444-.347.665-.877.665-1.59 0-.713-.221-1.234-.665-1.561-.424-.347-.973-.52-1.647-.52h-3.961v-3.846h5.204c1.272 0 2.37.241 3.295.723.945.482 1.668 1.128 2.169 1.937.501.81.751 1.725.751 2.746 0 1.369-.472 2.506-1.416 3.412-.925.886-2.274 1.436-4.048 1.648V31.63c1.966.231 3.47.867 4.51 1.908 1.041 1.021 1.561 2.313 1.561 3.874 0 1.156-.289 2.187-.867 3.093-.578.887-1.397 1.59-2.457 2.11-1.041.52-2.274.781-3.701.781h-5.001zm-4.105 0V22.899h5.088v20.497h-5.088zm24.382.318c-1.446 0-2.776-.24-3.99-.723-1.214-.5-2.245-1.204-3.093-2.11l3.296-3.238c.347.501.857.916 1.532 1.243a5.282 5.282 0 0 0 2.168.463c.636 0 1.195-.106 1.677-.318.501-.232.886-.55 1.156-.954.289-.424.434-.925.434-1.504 0-.578-.145-1.07-.434-1.474-.289-.424-.703-.742-1.243-.954-.52-.212-1.147-.318-1.879-.318-.386 0-.79.029-1.214.087-.405.038-.733.106-.983.202l2.255-2.833c.616-.154 1.175-.28 1.676-.376a6.488 6.488 0 0 1 1.388-.173c1.041 0 1.976.25 2.804.751.829.482 1.484 1.176 1.966 2.082.482.886.723 1.937.723 3.151 0 1.388-.337 2.611-1.012 3.671-.674 1.041-1.638 1.86-2.891 2.458-1.233.578-2.679.867-4.336.867zm-2.573-9.598v-2.833l4.77-5.58h5.608l-4.914 5.58-5.464 2.833zm-3.093-6.91V22.9h13.471v2.805l-3.903 1.503h-9.568z" fill="#F0EEE9"/><circle cx="28.099" cy="28" r="27.209" fill="#6667AB"/><path opacity=".5" fill-rule="evenodd" clip-rule="evenodd" d="M28.099 30.713l5.564-9.639h12.863L34.53 41.852l-6.431-11.14z" fill="#F0EEE9"/><path fill-rule="evenodd" clip-rule="evenodd" d="M22.534 21.074l5.565 9.639-6.431 11.139L9.672 21.074h12.862z" fill="#F0EEE9"/></svg>