<svg width="1440" height="400" viewBox="0 0 1440 400" fill="none" xmlns="http://www.w3.org/2000/svg">
<g clip-path="url(#clip0_3170_16595)">
<g opacity="0.15" filter="url(#filter0_f_3170_16595)">
<g clip-path="url(#clip1_3170_16595)">
<path d="M825.987 232.324C657.962 270.919 467.561 292.342 409.539 272.861C397.956 268.973 393.492 263.617 396.043 256.796C396.85 247.832 411.896 235.978 442.054 222.308C465.964 211.13 499.712 201.696 532.59 191.237C572.586 179.262 622.318 169.083 673.026 159.972C702.376 155.218 730.853 149.392 753.954 147.13C831.356 140.042 889.248 139.499 900.023 152.303C903.615 156.587 892.968 163.76 889.441 169.512C856.628 190.007 772.341 218.585 681.572 229.635C650.478 232.245 612.161 236.327 599.706 231.368C597.858 229.228 596.986 228.156 602.361 224.543C632.646 230.85 721.567 217.66 781.945 200.26C848.572 180.367 858.178 162.089 813.653 158.672C789.574 159.817 771.848 158.466 741.626 162.148C697.167 168.767 659.824 173.869 618.085 183.7C597.598 189.13 569.224 194.951 549.716 201.497C476.842 223.93 458.373 241.532 468.277 253.312C481.708 259.34 502.156 263.951 543.089 263.085C567.064 261.943 590.269 259.678 614.244 258.536C683.654 251.844 755.617 238.379 823.986 220.583C919.089 194.816 994.409 165.566 1009.39 143.724C1020.85 127.587 994.96 116.599 950.435 113.182C933.04 112.347 914.109 112.146 892.818 112.754C871.422 113.366 847.666 114.788 820.516 117.201C797.415 119.463 768.065 124.216 742.682 126.612C737.893 120.932 512.964 166.998 517.752 172.678C530.025 170.007 542.612 167.42 555.2 164.833C571.707 161.427 588.838 157.997 609.273 153.963C630.631 149.605 652.212 145.624 673.598 141.986C695.191 138.34 718.347 134.78 741.314 131.707C941.401 102.426 1065.2 120.924 950.82 173.209C933.054 181.85 908.272 191.956 874.524 201.391C827.407 214.786 772.404 228.574 714.577 239.154C627.504 254.483 541.136 260.901 508.128 251.334C495.673 246.374 498.224 239.554 507.896 231.313C519.413 225.164 530.933 219.063 542.453 212.962C568.21 203.924 602.831 195.561 638.429 188.315C509.68 223.464 512.595 256.738 649.567 241.213C694.899 235.667 743.759 224.415 786.475 215.652C814.952 209.827 833.591 202.257 853.101 195.76C878.859 186.722 911.735 176.215 920.535 166.902C939.108 149.296 935.452 135.024 875.712 133.427C801.837 134.763 703.077 146.209 604.486 167.688C534.269 183.345 481.882 200.348 437.486 216.956C407.33 230.674 378.044 245.417 370.99 256.922C364.911 269.447 380.086 277.618 408.629 281.829C444.291 284.571 480.825 288.385 543.011 283.118C566.113 280.904 581.223 279.039 599.382 278.068C610.273 282.894 835.201 236.781 825.987 232.324Z" fill="url(#paint0_radial_3170_16595)"/>
<path opacity="0.79" d="M1169.19 49.4324C1121.51 42.2907 1057.61 46.2779 1015.59 48.5782C979.895 50.5444 940.204 54.0059 895.069 59.2572C856.674 64.0149 808.361 73.2283 766.342 78.4104C757.157 69.149 388.822 156.007 398.008 165.268C418.095 160.286 438.602 155.384 459.319 150.571C486.322 144.224 514.461 137.69 547.861 130.046C582.902 121.812 618.278 114.19 653.47 107.199C688.972 100.148 727.182 93.2358 765.212 87.0509C1095.13 29.3046 1307.05 54.6731 1125.75 146.94C1097.73 162.163 1058.07 180.13 1003.4 197.315C927.171 221.748 837.464 247.216 742.569 267.451C599.361 296.899 455.799 311.374 398.384 296.961C376.363 289.239 379.362 277.743 394.009 263.55C412.113 252.831 430.217 242.111 448.217 231.396C489.613 215.189 546.009 199.716 604.238 185.999C395.176 250.345 407.029 305.667 633.84 273.7C708.903 262.472 788.59 241.512 858.465 225.051C905.048 214.078 934.798 200.615 966.172 188.868C1007.57 172.662 1060.61 153.712 1073.42 137.715C1100.88 107.575 1091.77 83.8526 991.236 83.9336C867.403 89.4535 704.009 112.936 542.697 153.104C427.969 182.298 343.553 212.995 272.407 242.664C224.552 266.847 178.532 292.786 169.074 312.258C161.345 333.444 188.553 346.398 237.323 352.106C297.739 355.071 359.885 359.795 463.426 348.314C501.821 343.556 526.843 339.829 557.007 337.398C576.108 344.894 944.341 258.088 927.855 251.023C653.882 322.805 338.632 366.983 237.072 337.129C216.781 331.167 208.134 322.414 211.135 310.965C210.676 295.996 233.405 275.544 281.259 251.362C319.196 231.635 373.863 214.449 426.905 195.499C491.593 173.806 573.008 154.558 656.258 137.115C704.57 127.853 751.153 116.88 789.444 112.126C918.005 96.8696 1015.09 93.3641 1035.84 114.295C1042.76 121.288 1026.38 133.768 1021.65 143.456C970.901 179.132 835.171 230.49 685.048 252.994C633.278 258.734 569.863 267.267 547.842 259.545C544.384 256.072 542.655 254.312 550.843 248.096C603.071 257.276 749.738 231.348 847.529 199.669C955.237 163.485 967.695 132.564 892.175 128.87C852.05 131.868 821.843 130.409 771.802 137.911C698.47 150.899 636.783 161.143 568.742 179.36C535.534 189.35 488.951 200.324 457.575 212.023C339.949 252.662 312.388 282.854 331.408 302.025C355.158 311.507 390.552 318.198 459.156 314.947C499.281 311.949 537.677 307.192 577.801 304.194C692.987 289.921 811.071 264.251 922.34 231.536C1024.93 200.205 1136.82 159.157 1203.71 110.434C1219.8 98.6852 1237.94 86.187 1226.2 72.5066C1215.76 60.2664 1194.81 53.2727 1169.19 49.4324Z" fill="url(#paint1_radial_3170_16595)"/>
</g>
</g>
</g>
<defs>
<filter id="filter0_f_3170_16595" x="152" y="33" width="1094.03" height="336.672" filterUnits="userSpaceOnUse" color-interpolation-filters="sRGB">
<feFlood flood-opacity="0" result="BackgroundImageFix"/>
<feBlend mode="normal" in="SourceGraphic" in2="BackgroundImageFix" result="shape"/>
<feGaussianBlur stdDeviation="3.5" result="effect1_foregroundBlur_3170_16595"/>
</filter>
<radialGradient id="paint0_radial_3170_16595" cx="0" cy="0" r="1" gradientUnits="userSpaceOnUse" gradientTransform="translate(690.337 198.565) rotate(168.422) scale(379.93 57.9591)">
<stop stop-color="#BFB5FF" stop-opacity="0.54"/>
<stop offset="0.5169" stop-color="#BFB5FF" stop-opacity="0.52"/>
<stop offset="1" stop-color="#3F3F69" stop-opacity="0.34"/>
</radialGradient>
<radialGradient id="paint1_radial_3170_16595" cx="0" cy="0" r="1" gradientUnits="userSpaceOnUse" gradientTransform="translate(697.68 199.72) rotate(166.73) scale(627.999 99.1346)">
<stop stop-color="#BFB5FF" stop-opacity="0.37"/>
<stop offset="0.5169" stop-color="#6667AB" stop-opacity="0.71"/>
<stop offset="1" stop-color="#6667AB" stop-opacity="0.13"/>
</radialGradient>
<clipPath id="clip0_3170_16595">
<rect width="1440" height="400" fill="white"/>
</clipPath>
<clipPath id="clip1_3170_16595">
<rect width="1070.17" height="282.669" fill="white" transform="translate(159 80.2031) rotate(-2.15293)"/>
</clipPath>
</defs>
</svg>
