<svg width="1440" height="210" viewBox="0 0 1440 210" fill="none" xmlns="http://www.w3.org/2000/svg"><g clip-path="url(#clip0_3170_16962)"><g clip-path="url(#clip1_3170_16962)"><path d="M1049.78 180.971a59.04 59.04 0 0 0 1.28-12.258c0-32.42-26.27-58.692-58.688-58.692-23.344 0-43.526 13.644-52.973 33.397-7.417-19.519-26.291-33.397-48.406-33.397-1.132 0-2.264.059-3.376.118-9.681-31.737-39.193-54.808-74.092-54.808-27.775 0-52.134 14.639-65.797 36.597a51.63 51.63 0 0 0-23.559-5.68c-25.491 0-46.668 18.425-50.962 42.687-9.135-8.061-21.119-12.96-34.236-12.96a51.5 51.5 0 0 0-30.039 9.622c-9.505-11.516-23.871-18.874-39.973-18.874-23.305 0-43 15.4-49.499 36.577-11.028-11.945-26.799-19.44-44.346-19.44-5.407 0-10.618.722-15.595 2.049-9.974-19.557-30.293-32.966-53.754-32.966-3.006 0-5.953.234-8.842.644-10.872-10.56-25.686-17.06-42.023-17.06-15.556 0-29.746 5.895-40.442 15.577a60.36 60.36 0 0 0-17.001-2.44c-17.274 0-32.83 7.26-43.819 18.894-10.13-19.05-30.175-32.03-53.266-32.03h-.41c-10.208-30.683-39.115-52.817-73.194-52.817-40.676 0-73.975 31.503-76.863 71.457a55.774 55.774 0 0 0-3.143-.078C10.985 95.07-18 124.075-18 159.833c0 35.757 28.985 64.742 64.743 64.742 15.36 0 29.473-5.367 40.578-14.307H386.09a60.095 60.095 0 0 0 19.655 3.299 60.34 60.34 0 0 0 15.596-2.05c9.974 19.558 30.292 32.967 53.753 32.967 23.969 0 44.659-13.975 54.398-34.216h79.948c8.373 5.817 18.542 9.252 29.512 9.252a51.427 51.427 0 0 0 29.512-9.252h204.358a51.584 51.584 0 0 0 18.191 3.299 51.584 51.584 0 0 0 18.191-3.299h41.75a58.518 58.518 0 0 0 33.65 16.61c-.098 1.347-.176 2.694-.176 4.06 0 28.595 23.192 51.783 51.782 51.783 28.6 0 51.78-23.188 51.78-51.783-.04-23.91-16.22-43.994-38.21-49.967z" fill="#302C4D"/></g><g clip-path="url(#clip2_3170_16962)"><path d="M935.593 169.26a59.108 59.108 0 0 1-1.288-12.257c0-32.421 26.272-58.692 58.692-58.692 23.343 0 43.523 13.643 52.973 33.396 7.42-19.519 26.29-33.396 48.41-33.396 1.13 0 2.26.058 3.37.117 9.68-31.737 39.2-54.808 74.09-54.808 27.78 0 52.14 14.639 65.8 36.597a51.65 51.65 0 0 1 23.56-5.68c25.49 0 46.67 18.425 50.96 42.687 9.14-8.061 21.12-12.96 34.24-12.96 11.2 0 21.57 3.572 30.04 9.622 9.5-11.516 23.87-18.874 39.97-18.874 23.31 0 43 15.4 49.5 36.577 11.03-11.945 26.8-19.44 44.35-19.44 5.4 0 10.61.722 15.59 2.05 9.97-19.558 30.29-32.967 53.75-32.967 3.01 0 5.96.234 8.85.644 10.87-10.56 25.68-17.06 42.02-17.06 15.56 0 29.75 5.895 40.44 15.577a60.395 60.395 0 0 1 17-2.44c17.28 0 32.83 7.26 43.82 18.894 10.13-19.05 30.18-32.03 53.27-32.03h.41C1795.61 34.134 1824.52 12 1858.6 12c40.68 0 73.98 31.503 76.86 71.457 1.04-.058 2.09-.078 3.15-.078 35.77-.02 64.76 28.985 64.76 64.743 0 35.757-28.99 64.742-64.74 64.742-15.36 0-29.48-5.367-40.58-14.307h-298.77a60.134 60.134 0 0 1-19.66 3.299c-5.4 0-10.61-.722-15.59-2.05-9.98 19.558-30.29 32.967-53.76 32.967-23.96 0-44.65-13.975-54.39-34.216h-79.95c-8.37 5.817-18.54 9.252-29.51 9.252-10.97 0-21.14-3.416-29.51-9.252h-204.36a51.587 51.587 0 0 1-18.19 3.299c-6.41 0-12.53-1.171-18.19-3.299h-41.75c-8.89 8.862-20.6 14.873-33.65 16.61.09 1.347.17 2.694.17 4.06 0 28.595-23.187 51.783-51.781 51.783-28.595 0-51.783-23.188-51.783-51.783.039-23.91 16.22-43.994 38.217-49.967z" fill="#302C4D"/></g><g clip-path="url(#clip3_3170_16962)"><path d="M511.06 208.57c.43-2.03.66-4.13.66-6.28 0-16.61-13.46-30.07-30.07-30.07-11.96 0-22.3 6.99-27.14 17.11-3.8-10-13.47-17.11-24.8-17.11-.58 0-1.16.03-1.73.06-4.96-16.26-20.08-28.08-37.96-28.08-14.23 0-26.71 7.5-33.71 18.75a26.451 26.451 0 0 0-12.07-2.91c-13.06 0-23.91 9.44-26.11 21.87-4.68-4.13-10.82-6.64-17.54-6.64-5.74 0-11.05 1.83-15.39 4.93-4.87-5.9-12.23-9.67-20.48-9.67-11.94 0-22.03 7.89-25.36 18.74-5.65-6.12-13.73-9.96-22.72-9.96-2.77 0-5.44.37-7.99 1.05-5.11-10.02-15.52-16.89-27.54-16.89-1.54 0-3.05.12-4.53.33-5.57-5.41-13.16-8.74-21.53-8.74-7.97 0-15.24 3.02-20.72 7.98-2.76-.81-5.69-1.25-8.71-1.25-8.85 0-16.82 3.72-22.45 9.68-5.19-9.76-15.46-16.41-27.29-16.41h-.21C70.44 139.34 55.63 128 38.17 128c-20.84 0-37.9 16.14-39.38 36.61-.53-.03-1.07-.04-1.61-.04-18.33-.01-33.18 14.85-33.18 33.17s14.85 33.17 33.17 33.17c7.87 0 15.1-2.75 20.79-7.33h153.07c3.16 1.09 6.54 1.69 10.07 1.69 2.77 0 5.44-.37 7.99-1.05 5.11 10.02 15.52 16.89 27.54 16.89 12.28 0 22.88-7.16 27.87-17.53h40.96a26.42 26.42 0 0 0 15.12 4.74c5.62 0 10.83-1.75 15.12-4.74h104.7c2.9 1.09 6.04 1.69 9.32 1.69 3.28 0 6.42-.6 9.32-1.69h21.39a29.983 29.983 0 0 0 17.24 8.51c-.05.69-.09 1.38-.09 2.08 0 14.65 11.88 26.53 26.53 26.53s26.53-11.88 26.53-26.53c-.02-12.25-8.31-22.54-19.58-25.6z" fill="#3F3F69"/></g><g clip-path="url(#clip4_3170_16962)"><path d="M452.561 202.57c-.43-2.03-.66-4.13-.66-6.28 0-16.61 13.46-30.07 30.07-30.07 11.96 0 22.3 6.99 27.14 17.11 3.8-10 13.47-17.11 24.8-17.11.58 0 1.16.03 1.73.06 4.96-16.26 20.08-28.08 37.96-28.08 14.23 0 26.71 7.5 33.71 18.75 3.62-1.85 7.72-2.91 12.07-2.91 13.06 0 23.91 9.44 26.11 21.87 4.68-4.13 10.82-6.64 17.54-6.64 5.74 0 11.05 1.83 15.39 4.93 4.87-5.9 12.23-9.67 20.48-9.67 11.94 0 22.03 7.89 25.36 18.74 5.65-6.12 13.73-9.96 22.72-9.96 2.77 0 5.44.37 7.99 1.05 5.11-10.02 15.52-16.89 27.54-16.89 1.54 0 3.05.12 4.53.33 5.57-5.41 13.16-8.74 21.53-8.74 7.97 0 15.24 3.02 20.72 7.98 2.76-.81 5.69-1.25 8.71-1.25 8.85 0 16.82 3.72 22.45 9.68 5.19-9.76 15.46-16.41 27.29-16.41h.21c5.23-15.72 20.04-27.06 37.5-27.06 20.84 0 37.9 16.14 39.38 36.61.53-.03 1.07-.04 1.61-.04 18.33-.01 33.18 14.85 33.18 33.17s-14.85 33.17-33.17 33.17c-7.87 0-15.1-2.75-20.79-7.33h-153.07a30.795 30.795 0 0 1-10.07 1.69c-2.77 0-5.44-.37-7.99-1.05-5.11 10.02-15.52 16.89-27.54 16.89-12.28 0-22.88-7.16-27.87-17.53h-40.96a26.42 26.42 0 0 1-15.12 4.74c-5.62 0-10.83-1.75-15.12-4.74h-104.7c-2.9 1.09-6.04 1.69-9.32 1.69-3.28 0-6.42-.6-9.32-1.69h-21.39a29.983 29.983 0 0 1-17.24 8.51c.05.69.09 1.38.09 2.08 0 14.65-11.88 26.53-26.53 26.53s-26.53-11.88-26.53-26.53c.02-12.25 8.31-22.54 19.58-25.6z" fill="#3F3F69"/></g><g clip-path="url(#clip5_3170_16962)"><path d="M1497.06 208.57c.43-2.03.66-4.13.66-6.28 0-16.61-13.46-30.07-30.07-30.07-11.96 0-22.3 6.99-27.14 17.11-3.8-10-13.47-17.11-24.8-17.11-.58 0-1.16.03-1.73.06-4.96-16.26-20.08-28.08-37.96-28.08-14.23 0-26.71 7.5-33.71 18.75a26.451 26.451 0 0 0-12.07-2.91c-13.06 0-23.91 9.44-26.11 21.87-4.68-4.13-10.82-6.64-17.54-6.64-5.74 0-11.05 1.83-15.39 4.93-4.87-5.9-12.23-9.67-20.48-9.67-11.94 0-22.03 7.89-25.36 18.74-5.65-6.12-13.73-9.96-22.72-9.96-2.77 0-5.44.37-7.99 1.05-5.11-10.02-15.52-16.89-27.54-16.89-1.54 0-3.05.12-4.53.33-5.57-5.41-13.16-8.74-21.53-8.74-7.97 0-15.24 3.02-20.72 7.98-2.76-.81-5.69-1.25-8.71-1.25-8.85 0-16.82 3.72-22.45 9.68-5.19-9.76-15.46-16.41-27.29-16.41h-.21c-5.23-15.72-20.04-27.06-37.5-27.06-20.84 0-37.9 16.14-39.38 36.61-.53-.03-1.07-.04-1.61-.04-18.33-.01-33.18 14.85-33.18 33.17s14.85 33.17 33.17 33.17c7.87 0 15.1-2.75 20.79-7.33h153.07c3.16 1.09 6.54 1.69 10.07 1.69 2.77 0 5.44-.37 7.99-1.05 5.11 10.02 15.52 16.89 27.54 16.89 12.28 0 22.88-7.16 27.87-17.53h40.96a26.42 26.42 0 0 0 15.12 4.74c5.62 0 10.83-1.75 15.12-4.74h104.7c2.9 1.09 6.04 1.69 9.32 1.69 3.28 0 6.42-.6 9.32-1.69h21.39a29.983 29.983 0 0 0 17.24 8.51c-.05.69-.09 1.38-.09 2.08 0 14.65 11.88 26.53 26.53 26.53s26.53-11.88 26.53-26.53c-.02-12.25-8.31-22.54-19.58-25.6z" fill="#3F3F69"/></g><g clip-path="url(#clip6_3170_16962)"><path d="M1404.56 229.57c-.43-2.03-.66-4.13-.66-6.28 0-16.61 13.46-30.07 30.07-30.07 11.96 0 22.3 6.99 27.14 17.11 3.8-10 13.47-17.11 24.8-17.11.58 0 1.16.03 1.73.06 4.96-16.26 20.08-28.08 37.96-28.08 14.23 0 26.71 7.5 33.71 18.75 3.62-1.85 7.72-2.91 12.07-2.91 13.06 0 23.91 9.44 26.11 21.87 4.68-4.13 10.82-6.64 17.54-6.64 5.74 0 11.05 1.83 15.39 4.93 4.87-5.9 12.23-9.67 20.48-9.67 11.94 0 22.03 7.89 25.36 18.74 5.65-6.12 13.73-9.96 22.72-9.96 2.77 0 5.44.37 7.99 1.05 5.11-10.02 15.52-16.89 27.54-16.89 1.54 0 3.05.12 4.53.33 5.57-5.41 13.16-8.74 21.53-8.74 7.97 0 15.24 3.02 20.72 7.98 2.76-.81 5.69-1.25 8.71-1.25 8.85 0 16.82 3.72 22.45 9.68 5.19-9.76 15.46-16.41 27.29-16.41h.21c5.23-15.72 20.04-27.06 37.5-27.06 20.84 0 37.9 16.14 39.38 36.61.53-.03 1.07-.04 1.61-.04 18.33-.01 33.18 14.85 33.18 33.17s-14.85 33.17-33.17 33.17c-7.87 0-15.1-2.75-20.79-7.33h-153.07a30.795 30.795 0 0 1-10.07 1.69c-2.77 0-5.44-.37-7.99-1.05-5.11 10.02-15.52 16.89-27.54 16.89-12.28 0-22.88-7.16-27.87-17.53h-40.96a26.42 26.42 0 0 1-15.12 4.74c-5.62 0-10.83-1.75-15.12-4.74h-104.7c-2.9 1.09-6.04 1.69-9.32 1.69-3.28 0-6.42-.6-9.32-1.69h-21.39a29.983 29.983 0 0 1-17.24 8.51c.05.69.09 1.38.09 2.08 0 14.65-11.88 26.53-26.53 26.53s-26.53-11.88-26.53-26.53c.02-12.25 8.31-22.54 19.58-25.6z" fill="#3F3F69"/></g></g><defs><clipPath id="clip0_3170_16962"><path fill="#fff" d="M0 0h1440v210H0z"/></clipPath><clipPath id="clip1_3170_16962"><path fill="#fff" transform="translate(-18 23.71)" d="M0 0h1105.95v258.99H0z"/></clipPath><clipPath id="clip2_3170_16962"><path fill="#fff" transform="matrix(-1 0 0 1 2003.37 12)" d="M0 0h1105.95v258.99H0z"/></clipPath><clipPath id="clip3_3170_16962"><path fill="#fff" transform="translate(-36 128)" d="M0 0h566.62v132.69H0z"/></clipPath><clipPath id="clip4_3170_16962"><path fill="#fff" transform="matrix(-1 0 0 1 999.621 122)" d="M0 0h566.62v132.69H0z"/></clipPath><clipPath id="clip5_3170_16962"><path fill="#fff" transform="translate(950 128)" d="M0 0h566.62v132.69H0z"/></clipPath><clipPath id="clip6_3170_16962"><path fill="#fff" transform="matrix(-1 0 0 1 1951.62 149)" d="M0 0h566.62v132.69H0z"/></clipPath></defs></svg>