<svg width="180" height="180" viewBox="0 0 180 180" fill="none" xmlns="http://www.w3.org/2000/svg"><g clip-path="url(#clip0_3170_16801)"><circle opacity=".21" cx="90" cy="90" r="53" fill="#6667AB"/><circle opacity=".15" cx="90" cy="90" r="61" fill="#6667AB"/><circle cx="90" cy="90" r="46" transform="rotate(-180 90 90)" fill="url(#paint0_linear_3170_16801)"/><circle cx="90" cy="90" r="38" fill="url(#paint1_linear_3170_16801)"/><circle cx="90" cy="90" r="38" fill="url(#paint2_linear_3170_16801)"/><path d="M159.722 106.526c9.081-38.46-14.735-77.001-53.196-86.083-38.46-9.082-77 14.735-86.082 53.195-9.082 38.461 14.734 77.001 53.195 86.083 38.46 9.082 77.001-14.735 86.083-53.195z" fill="#26233E" opacity=".21" filter="url(#filter0_f_3170_16801)"/><circle cx="90" cy="90" r="30" fill="#F0EEE9"/><path d="M99.608 98.015c.316-.263.625-.536.918-.825.068-.06.135-.128.199-.193.089-.088.176-.18.265-.272.089-.092.143-.152.218-.233.12-.132.24-.267.355-.407.061-.07.12-.143.179-.212.083-.097.161-.194.237-.288l.186-.238.286-.393c.211-.303.414-.614.607-.932a2.764 2.764 0 0 0 .186-.313 14.438 14.438 0 0 0 .845-1.704l.027-.066c.044-.105.087-.212.129-.318.041-.106.094-.242.143-.362.049-.121.084-.243.126-.367.084-.245.165-.493.232-.743.036-.124.067-.25.1-.378.096-.377.182-.764.249-1.15.02-.116.042-.23.059-.349a.131.131 0 0 1 .008-.059 8.587 8.587 0 0 0 .068-.51c.008-.083.021-.183.03-.275a12.77 12.77 0 0 0 .056-.713c0-.083.011-.168.011-.254 0-.087.009-.153.009-.233v-.407c0-4.196-1.66-8.22-4.613-11.187A15.713 15.713 0 0 0 89.587 70a15.713 15.713 0 0 0-11.136 4.634 15.857 15.857 0 0 0-4.613 11.187c0 .274 0 .546.021.814 0 .122.015.243.023.363l.017.213c.013.144.028.288.045.431a.372.372 0 0 0 .011.113c.022.162.042.325.069.487.056.393.129.78.216 1.165l.338 1.464.059-.072.887-1.092c.382-.469.796-.926 1.23-1.363a18.058 18.058 0 0 1 3.6-2.828l.389-.222.014-.008v-.157a8.93 8.93 0 0 1 1.1-3.66 8.888 8.888 0 0 1 2.528-2.86 8.838 8.838 0 0 1 7.294-1.446 8.844 8.844 0 0 1 3.42 1.678 8.893 8.893 0 0 1 2.404 2.966 8.934 8.934 0 0 1 .072 7.86c-.065.13-.123.256-.195.384-.067.123-.143.247-.213.368a9.061 9.061 0 0 1-.74 1.047 6.055 6.055 0 0 1-.43.481c-.155.157-.299.304-.457.446-.104.1-.212.191-.32.28-.107.09-.223.177-.335.262a8.955 8.955 0 0 1-1.642.98.015.015 0 0 0-.01 0 8.662 8.662 0 0 1-3.643.803 6.451 6.451 0 0 0-3.987 1.376 6.502 6.502 0 0 0-2.297 3.552l-.143.604v.02l.597.24c.143.059.286.106.43.158a14.716 14.716 0 0 0 1.859.555c.382.092.768.165 1.156.221a19 19 0 0 0 .394.056 18.212 18.212 0 0 0 1.184.107h.067c.25.011.502.017.754.017s.505 0 .756-.017h.067a18.22 18.22 0 0 0 1.184-.107c.133-.017.26-.036.393-.056.39-.056.775-.13 1.157-.221.255-.059.505-.124.754-.194.156-.045.312-.092.464-.144.151-.052.306-.099.458-.152a10.227 10.227 0 0 0 .894-.348 14.649 14.649 0 0 0 1.71-.853l.326-.195.323-.203c.093-.06.185-.123.286-.184.325-.22.646-.454.954-.699l.278-.236z" fill="url(#paint3_radial_3170_16801)"/><path fill-rule="evenodd" clip-rule="evenodd" d="M85.147 93.51a9.43 9.43 0 0 0-.886.594 8.902 8.902 0 0 0-3.553 7.115v2.953c0 .915-.362 1.793-1.006 2.44a3.427 3.427 0 0 1-4.858 0 3.459 3.459 0 0 1-1.006-2.44v-2.953a15.925 15.925 0 0 1 .405-3.587 15.65 15.65 0 0 1 1.589-4.121c.068-.127.139-.25.212-.374a16.013 16.013 0 0 1 2.403-3.103 16.788 16.788 0 0 1 1.686-1.473c.286-.208.572-.412.859-.6a15.307 15.307 0 0 1 2.758-1.438 15.81 15.81 0 0 1 11.68 0l.598.237-.156.625a6.481 6.481 0 0 1-2.28 3.545 6.43 6.43 0 0 1-3.968 1.383 8.813 8.813 0 0 0-4.477 1.198zm18.504 3.825l.946-1.16.328 1.46a16.01 16.01 0 0 1 .403 3.585v2.952a3.46 3.46 0 0 1-1.006 2.44 3.427 3.427 0 0 1-4.858 0 3.459 3.459 0 0 1-1.006-2.44v-2.447l.36-.214a18.174 18.174 0 0 0 3.602-2.814c.434-.432.845-.886 1.231-1.362z" fill="url(#paint4_linear_3170_16801)"/></g><defs><filter id="filter0_f_3170_16801" x="-2.488" y="-2.488" width="185.141" height="185.141" filterUnits="userSpaceOnUse" color-interpolation-filters="sRGB"><feFlood flood-opacity="0" result="BackgroundImageFix"/><feBlend in="SourceGraphic" in2="BackgroundImageFix" result="shape"/><feGaussianBlur stdDeviation="10.5" result="effect1_foregroundBlur_3170_16801"/></filter><linearGradient id="paint0_linear_3170_16801" x1="89.997" y1="136.007" x2="89.997" y2="44" gradientUnits="userSpaceOnUse"><stop stop-color="#BFB5FF"/><stop offset="1" stop-color="#6667AB"/></linearGradient><linearGradient id="paint1_linear_3170_16801" x1="89.997" y1="128.005" x2="89.997" y2="52" gradientUnits="userSpaceOnUse"><stop stop-color="#BFB5FF"/><stop offset="1" stop-color="#6667AB"/></linearGradient><linearGradient id="paint2_linear_3170_16801" x1="89.997" y1="128.005" x2="89.997" y2="52" gradientUnits="userSpaceOnUse"><stop stop-color="#BFB5FF"/><stop offset="1" stop-color="#6667AB"/></linearGradient><radialGradient id="paint3_radial_3170_16801" cx="0" cy="0" r="1" gradientUnits="userSpaceOnUse" gradientTransform="matrix(4.4983 -26.17194 26.06738 4.48032 88.15 94.945)"><stop stop-color="#4C81E8"/><stop offset=".74" stop-color="#4F87F5"/><stop offset="1" stop-color="#6096FF"/></radialGradient><linearGradient id="paint4_linear_3170_16801" x1="90.195" y1="84.722" x2="84.47" y2="107.622" gradientUnits="userSpaceOnUse"><stop stop-color="#5C5C5C"/><stop offset=".296" stop-color="#454545"/><stop offset="1" stop-color="#383838"/></linearGradient><clipPath id="clip0_3170_16801"><path fill="#fff" d="M0 0h180v180H0z"/></clipPath></defs></svg>