<svg width="24" height="24" viewBox="0 0 24 24" fill="none" xmlns="http://www.w3.org/2000/svg">
<g opacity="0.32">
<path d="M19.7712 9.29797H15.0425C13.9279 9.29797 13.016 8.38601 13.016 7.27139V2.54271C13.016 2.17117 12.712 1.86719 12.3404 1.86719H5.58517C4.47055 1.86719 3.55859 2.77915 3.55859 3.89377V20.1064C3.55859 21.221 4.47055 22.133 5.58517 22.133H18.4202C19.5348 22.133 20.4467 21.221 20.4467 20.1064V9.9735C20.4467 9.60196 20.1428 9.29797 19.7712 9.29797Z" fill="white"/>
<path d="M20.3121 6.46076L15.8536 2.00229C15.7523 1.90096 15.6509 1.86719 15.5158 1.86719C15.2456 1.86719 15.043 2.06985 15.043 2.34006V5.92034C15.043 6.66342 15.6509 7.27139 16.394 7.27139H19.9743C20.2445 7.27139 20.4472 7.06874 20.4472 6.79853C20.4472 6.66342 20.4134 6.56209 20.3121 6.46076Z" fill="white"/>
</g>
</svg>
