<svg width="180" height="180" viewBox="0 0 180 180" fill="none" xmlns="http://www.w3.org/2000/svg"><g clip-path="url(#clip0_3170_16861)"><circle opacity=".21" cx="90" cy="90" r="53" fill="#6667AB"/><circle opacity=".15" cx="90" cy="90" r="61" fill="#6667AB"/><circle cx="90" cy="90" r="46" transform="rotate(-180 90 90)" fill="url(#paint0_linear_3170_16861)"/><circle cx="90" cy="90" r="38" fill="url(#paint1_linear_3170_16861)"/><circle cx="90" cy="90" r="38" fill="url(#paint2_linear_3170_16861)"/><path d="M159.722 106.526c9.081-38.46-14.735-77.001-53.196-86.083-38.46-9.082-77 14.735-86.082 53.195-9.082 38.461 14.734 77.001 53.195 86.083 38.46 9.082 77.001-14.735 86.083-53.195z" fill="#26233E" opacity=".21" filter="url(#filter0_f_3170_16861)"/><circle cx="90" cy="90" r="30" fill="#F0EEE9"/><path d="M106 74v5.148c0 5.926-4.76 10.741-10.668 10.837l-.18.001H90v5.162C90 101.245 85.16 106 79.197 106H74v-5.301-11.525C74 80.794 80.8 74 89.187 74H106z" fill="#fff"/><path fill-rule="evenodd" clip-rule="evenodd" d="M99.13 74H106v5.148C106 85.245 101.16 90 95.197 90H90v-5.297c0-5.402 3.956-9.88 9.13-10.703z" fill="#242265" fill-opacity=".8"/><path d="M106 74v5.148c0 5.926-4.76 10.741-10.668 10.837l-.18.001H90v5.162C90 101.245 85.16 106 79.197 106H74v-5.301-11.525C74 80.794 80.8 74 89.187 74H106z" fill="#616EE1" fill-opacity=".8"/></g><defs><filter id="filter0_f_3170_16861" x="-2.488" y="-2.488" width="185.141" height="185.141" filterUnits="userSpaceOnUse" color-interpolation-filters="sRGB"><feFlood flood-opacity="0" result="BackgroundImageFix"/><feBlend in="SourceGraphic" in2="BackgroundImageFix" result="shape"/><feGaussianBlur stdDeviation="10.5" result="effect1_foregroundBlur_3170_16861"/></filter><linearGradient id="paint0_linear_3170_16861" x1="89.997" y1="136.007" x2="89.997" y2="44" gradientUnits="userSpaceOnUse"><stop stop-color="#BFB5FF"/><stop offset="1" stop-color="#6667AB"/></linearGradient><linearGradient id="paint1_linear_3170_16861" x1="89.997" y1="128.005" x2="89.997" y2="52" gradientUnits="userSpaceOnUse"><stop stop-color="#BFB5FF"/><stop offset="1" stop-color="#6667AB"/></linearGradient><linearGradient id="paint2_linear_3170_16861" x1="89.997" y1="128.005" x2="89.997" y2="52" gradientUnits="userSpaceOnUse"><stop stop-color="#BFB5FF"/><stop offset="1" stop-color="#6667AB"/></linearGradient><clipPath id="clip0_3170_16861"><path fill="#fff" d="M0 0h180v180H0z"/></clipPath></defs></svg>