<svg width="180" height="180" viewBox="0 0 180 180" fill="none" xmlns="http://www.w3.org/2000/svg">
<g clip-path="url(#clip0_3170_16861)">
<circle opacity="0.21" cx="90" cy="90" r="53" fill="#6667AB"/>
<circle opacity="0.15" cx="90" cy="90" r="61" fill="#6667AB"/>
<circle cx="90" cy="90" r="46" transform="rotate(-180 90 90)" fill="url(#paint0_linear_3170_16861)"/>
<circle cx="90" cy="90" r="38" fill="url(#paint1_linear_3170_16861)"/>
<circle cx="90" cy="90" r="38" fill="url(#paint2_linear_3170_16861)"/>
<g opacity="0.21" filter="url(#filter0_f_3170_16861)">
<path d="M159.722 106.526C168.803 68.0653 144.987 29.5248 106.526 20.4432C68.0659 11.3615 29.5253 35.1778 20.4437 73.6384C11.3621 112.099 35.1784 150.639 73.639 159.721C112.099 168.803 150.64 144.986 159.722 106.526Z" fill="#26233E"/>
</g>
<circle cx="90" cy="90" r="30" fill="#F0EEE9"/>
<path d="M106 74V79.1482C106 85.0741 101.24 89.8892 95.3321 89.9849L95.1528 89.9864L90 89.9867V95.1477C90 101.245 85.1597 106 79.1967 106H74V100.699C74 100.675 74.0001 100.652 74.0002 100.628V89.1735C74.0002 80.7934 80.7994 74 89.1867 74H106Z" fill="white"/>
<path fill-rule="evenodd" clip-rule="evenodd" d="M99.1308 74H106V79.1477C106 85.2447 101.16 90 95.1967 90H95.0173H90V84.7032C90 79.3013 93.9556 74.8224 99.1308 74Z" fill="#242265" fill-opacity="0.8"/>
<path d="M106 74V79.1482C106 85.0741 101.24 89.8892 95.3321 89.9849L95.1528 89.9864L90 89.9867V95.1477C90 101.245 85.1597 106 79.1967 106H74V100.699C74 100.675 74.0001 100.652 74.0002 100.628V89.1735C74.0002 80.7934 80.7994 74 89.1867 74H106Z" fill="#616EE1" fill-opacity="0.8"/>
</g>
<defs>
<filter id="filter0_f_3170_16861" x="-2.48828" y="-2.48828" width="185.141" height="185.141" filterUnits="userSpaceOnUse" color-interpolation-filters="sRGB">
<feFlood flood-opacity="0" result="BackgroundImageFix"/>
<feBlend mode="normal" in="SourceGraphic" in2="BackgroundImageFix" result="shape"/>
<feGaussianBlur stdDeviation="10.5" result="effect1_foregroundBlur_3170_16861"/>
</filter>
<linearGradient id="paint0_linear_3170_16861" x1="89.9968" y1="136.007" x2="89.9968" y2="44" gradientUnits="userSpaceOnUse">
<stop stop-color="#BFB5FF"/>
<stop offset="1" stop-color="#6667AB"/>
</linearGradient>
<linearGradient id="paint1_linear_3170_16861" x1="89.9973" y1="128.005" x2="89.9973" y2="52" gradientUnits="userSpaceOnUse">
<stop stop-color="#BFB5FF"/>
<stop offset="1" stop-color="#6667AB"/>
</linearGradient>
<linearGradient id="paint2_linear_3170_16861" x1="89.9973" y1="128.005" x2="89.9973" y2="52" gradientUnits="userSpaceOnUse">
<stop stop-color="#BFB5FF"/>
<stop offset="1" stop-color="#6667AB"/>
</linearGradient>
<clipPath id="clip0_3170_16861">
<rect width="180" height="180" fill="white"/>
</clipPath>
</defs>
</svg>
