<svg width="24" height="24" viewBox="0 0 24 24" fill="none" xmlns="http://www.w3.org/2000/svg">
<g opacity="0.32">
<path d="M22.5 12C22.5 14.2912 21.8272 16.341 20.4922 18.1702C19.1572 19.9987 17.4337 21.2602 15.321 21.9637C15.0795 22.0065 14.8905 21.9742 14.7855 21.8692C14.7291 21.8173 14.6848 21.7537 14.6557 21.6828C14.6265 21.6119 14.6132 21.5356 14.6168 21.459V18.579C14.6168 17.697 14.3753 17.0452 13.9028 16.6357C14.3739 16.5893 14.8409 16.5081 15.3 16.3927C15.7494 16.2724 16.1807 16.0926 16.5825 15.858C17.0243 15.6052 17.3918 15.3105 17.6865 14.9535C17.9805 14.5965 18.222 14.112 18.411 13.5135C18.6008 12.9142 18.6953 12.2317 18.6953 11.4532C18.6953 10.35 18.3382 9.41475 17.6122 8.637C17.949 7.806 17.9175 6.88125 17.5073 5.8515C17.2553 5.76675 16.8877 5.82 16.404 5.9985C15.9202 6.177 15.5003 6.37725 15.1425 6.59775L14.6273 6.92325C13.776 6.68175 12.9038 6.56625 12 6.56625C11.0962 6.56625 10.224 6.68175 9.37275 6.92325C9.18408 6.79444 8.99123 6.67188 8.7945 6.55575C8.55225 6.40875 8.17425 6.23025 7.6485 6.03C7.134 5.82 6.73425 5.76675 6.471 5.841C6.072 6.87075 6.0405 7.79625 6.3765 8.6265C5.66175 9.41475 5.29425 10.35 5.29425 11.4532C5.29425 12.2317 5.38875 12.9142 5.5785 13.503C5.76675 14.0917 6.009 14.5755 6.29325 14.943C6.58725 15.3105 6.95475 15.6157 7.3965 15.858C7.83825 16.0995 8.26875 16.278 8.679 16.3927C9.13837 16.5081 9.60564 16.5893 10.077 16.6357C9.70875 16.9605 9.48825 17.4337 9.40425 18.0435C9.20783 18.1386 8.99905 18.2058 8.784 18.243C8.52728 18.2882 8.2669 18.3093 8.00625 18.306C7.701 18.306 7.407 18.2115 7.11225 18.012C6.81825 17.8125 6.56625 17.5282 6.35625 17.1607C6.18947 16.8776 5.96358 16.6339 5.694 16.446C5.43075 16.257 5.19975 16.1512 5.02125 16.1197L4.74825 16.0777C4.5585 16.0777 4.422 16.0995 4.3485 16.1407C4.275 16.1827 4.254 16.2352 4.2855 16.2982C4.317 16.3612 4.359 16.425 4.4115 16.488C4.464 16.551 4.527 16.6035 4.59 16.656L4.6845 16.719C4.88475 16.8135 5.08425 16.9822 5.28375 17.2342C5.484 17.4862 5.6205 17.718 5.715 17.928L5.8515 18.243C5.967 18.5902 6.1665 18.8737 6.45075 19.0837C6.73425 19.2945 7.03875 19.431 7.365 19.494C7.6905 19.557 8.00625 19.5885 8.31075 19.5885C8.61525 19.5885 8.868 19.578 9.0675 19.536L9.38325 19.4835C9.38325 19.83 9.38325 20.2402 9.393 20.703C9.393 21.1657 9.40425 21.4177 9.40425 21.4387C9.40599 21.5159 9.39085 21.5926 9.35989 21.6633C9.32892 21.734 9.28289 21.7972 9.225 21.8482C9.1095 21.9532 8.9205 21.9847 8.679 21.9427C6.56625 21.2385 4.84275 19.9777 3.50775 18.1485C2.16225 16.341 1.5 14.2807 1.5 12C1.5 10.098 1.97325 8.34225 2.9085 6.73425C3.84375 5.12625 5.11575 3.85425 6.73425 2.9085C8.34225 1.97325 10.0973 1.5 12 1.5C13.9027 1.5 15.6577 1.97325 17.2657 2.9085C18.8737 3.84375 20.1457 5.11575 21.0915 6.73425C22.0267 8.33175 22.5 10.098 22.5 12Z" fill="white"/>
</g>
</svg>
